Coordinates
version=1
nRows=13
nColumns=38
inDegrees=yes

Units are S.I. units (second, meters, Newtons, ...)
Angles are in degrees.

endheader
time	pelvis_tilt	pelvis_list	pelvis_rotation	pelvis_tx	pelvis_ty	pelvis_tz	hip_flexion_r	hip_adduction_r	hip_rotation_r	knee_angle_r	ankle_angle_r	subtalar_angle_r	mtp_angle_r	hip_flexion_l	hip_adduction_l	hip_rotation_l	knee_angle_l	ankle_angle_l	subtalar_angle_l	mtp_angle_l	lumbar_extension	lumbar_bending	lumbar_rotation	arm_flex_r	arm_add_r	arm_rot_r	elbow_flex_r	pro_sup_r	wrist_flex_r	wrist_dev_r	arm_flex_l	arm_add_l	arm_rot_l	elbow_flex_l	pro_sup_l	wrist_flex_l	wrist_dev_l
      1.48000000	      2.89951595	     -3.63232231	      7.21982714	      0.08853712	      0.96348887	     -0.25128150	     19.43755081	      6.91815208	     -6.29926279	    -18.08309119	     -6.83403631	    -14.41554987	      0.00000000	     -4.43597800	     -7.31462789	     -4.68655193	    -50.85920894	    -12.87063039	      4.97678150	      0.00000000	    -11.49726526	      5.80477278	     -9.37070905	    -12.01606054	     -8.34201043	     40.64355089	     26.22880466	     40.35414639	      0.00000000	      0.00000000	      7.29343092	    -12.64877855	     24.85299860	     53.99086842	     40.35414639	      0.00000000	      0.00000000
      1.49000000	      3.02019352	     -4.31932794	      7.15641630	      0.10297606	      0.96501545	     -0.25028775	     18.61547920	      7.91051907	     -5.96272227	    -18.34900653	     -6.07538574	    -14.81996308	      0.00000000	     -2.64241448	     -8.48716428	     -4.66292020	    -54.06148039	    -15.65000452	      3.59896905	      0.00000000	    -11.50395843	      6.56496933	     -8.77894026	    -11.55133168	     -8.41459720	     40.44896674	     25.92353802	     40.65319725	      0.00000000	      0.00000000	      7.03404104	    -12.01038824	     25.32211354	     52.20457889	     40.65319725	      0.00000000	      0.00000000
      1.50000000	      2.98834043	     -4.97814564	      7.03403851	      0.11702372	      0.96643183	     -0.24926123	     17.68402451	      8.83421229	     -5.92574140	    -18.07917335	     -5.18141163	    -14.75182582	      0.00000000	     -0.70787288	    -10.06403901	     -5.55585975	    -57.03471232	    -16.71993903	      2.24181334	      0.00000000	    -11.40644918	      7.25902176	     -8.21283789	    -11.01301869	     -8.67902863	     40.41147511	     26.04219975	     40.68370311	      0.00000000	      0.00000000	      6.33064011	    -11.66513109	     25.54696517	     51.84093149	     40.68370311	      0.00000000	      0.00000000
      1.51000000	      2.83126505	     -5.67564185	      6.98079216	      0.13067962	      0.96788439	     -0.24833746	     16.56381513	      9.74468028	     -6.20436031	    -17.07568868	     -4.67465446	    -14.59065533	      0.00000000	      1.31857415	    -11.33223918	     -6.01013715	    -59.71492677	    -16.06876529	     -0.38027560	      0.00000000	    -11.19505004	      8.00934969	     -7.69013527	    -10.53544944	     -8.99568182	     40.41923832	     26.28020050	     40.72981107	      0.00000000	      0.00000000	      5.75937290	    -11.21591168	     25.77249302	     51.07124682	     40.72981107	      0.00000000	      0.00000000
      1.52000000	      2.67288301	     -6.08697297	      7.00219712	      0.14408487	      0.96965985	     -0.24762583	     15.25495338	     10.35629381	     -6.20635129	    -15.79211696	     -4.14461633	    -14.30361752	      0.00000000	      3.25392175	    -11.83677146	     -5.81834419	    -61.84762790	    -14.28785045	     -4.00756731	      0.00000000	    -11.00301630	      8.39257165	     -7.20405890	     -9.97760297	     -9.26995554	     40.45543146	     26.64665069	     40.78663398	      0.00000000	      0.00000000	      5.23555674	    -10.78980878	     26.05327922	     50.03483363	     40.78663398	      0.00000000	      0.00000000
      1.53000000	      2.53138117	     -6.14770222	      6.92192275	      0.15731613	      0.97168449	     -0.24690610	     13.94877353	     10.62532861	     -6.00505475	    -14.68000429	     -3.45623527	    -14.04537536	      0.00000000	      5.11676832	    -11.94243762	     -5.72172858	    -63.60586727	    -11.00533272	     -6.70004488	      0.00000000	    -10.91912001	      8.37253272	     -6.65557596	     -9.33095223	     -9.39854515	     40.42837103	     26.84088587	     40.80323194	      0.00000000	      0.00000000	      4.70164811	    -10.52473639	     26.21850789	     49.55906685	     40.80323194	      0.00000000	      0.00000000
      1.54000000	      2.49937754	     -6.22156239	      7.10013993	      0.17039890	      0.97406783	     -0.24653125	     12.55777732	     10.86182490	     -6.07099978	    -13.53118209	     -3.20361021	    -13.83350062	      0.00000000	      7.10803192	    -11.90031272	     -5.21316763	    -65.11194472	     -9.61138697	    -10.27850219	      0.00000000	    -10.90104112	      8.40395888	     -6.45574209	     -8.49040610	     -9.77092065	     40.44182580	     27.38193574	     40.85609002	      0.00000000	      0.00000000	      4.25861066	    -10.10840055	     26.50838562	     48.06979649	     40.85609002	      0.00000000	      0.00000000
      1.55000000	      2.54050823	     -6.07569930	      7.29237963	      0.18341714	      0.97653533	     -0.24623744	     11.25041436	     10.86668434	     -5.89739245	    -12.81628361	     -2.62968530	    -13.57974106	      0.00000000	      8.80754395	    -11.86649381	     -5.17441178	    -66.18803725	     -7.44759857	    -12.66352119	      0.00000000	    -10.97459848	      8.20540727	     -6.00142636	     -8.36062181	    -10.10491792	     39.73485092	     28.85287833	     41.76943737	      0.00000000	      0.00000000	      6.12536372	     -9.90421122	     33.26354249	     41.60797235	     41.76943737	      0.00000000	      0.00000000
      1.56000000	      2.47966163	     -5.80848577	      7.31180838	      0.19569757	      0.97875433	     -0.24591175	     10.17854301	     10.74046002	     -5.53426761	    -12.32500980	     -2.04561897	    -13.34094645	      0.00000000	     10.61588172	    -11.51336191	     -5.01626373	    -67.02124787	     -6.49143049	    -14.21192902	      0.00000000	    -11.07238015	      7.83089490	     -5.60643883	     -7.57505098	    -10.20601056	     39.65622888	     29.01206465	     41.78265395	      0.00000000	      0.00000000	      5.58090240	     -9.76593640	     33.35099179	     41.39599605	     41.78265395	      0.00000000	      0.00000000
      1.57000000	      2.51070299	     -5.43881619	      7.23785341	      0.20889101	      0.98136267	     -0.24557208	      8.88538271	     10.53236679	     -5.28972349	    -11.74350155	     -1.48592845	    -13.12050802	      0.00000000	     12.08547807	    -10.94916867	     -4.95590428	    -67.31286812	     -5.49176637	    -15.48412011	      0.00000000	    -11.16450815	      7.32729765	     -5.07444330	     -6.81969928	    -10.34585914	     39.58421685	     29.17445285	     41.79218315	      0.00000000	      0.00000000	      4.88511729	     -9.64790480	     33.43476525	     41.07594729	     41.79218315	      0.00000000	      0.00000000
      1.58000000	      2.66888329	     -4.85468228	      7.28361808	      0.22169146	      0.98419240	     -0.24561174	      7.28083350	     10.06630682	     -5.09384271	    -10.76811378	     -1.10395253	    -12.61569496	      0.00000000	     13.33159943	     -9.84643361	     -4.58362622	    -67.17633720	     -4.98896529	    -17.17108045	      0.00000000	    -11.44884347	      6.63585629	     -5.11513879	     -5.89315089	    -10.51522433	     39.53260982	     29.55569031	     41.82467746	      0.00000000	      0.00000000	      4.12403151	     -9.52919972	     33.46550496	     40.12640867	     41.82467746	      0.00000000	      0.00000000
      1.59000000	      2.65989675	     -4.47393866	      7.17854711	      0.23433746	      0.98636993	     -0.24537173	      5.82516889	      9.78240201	     -4.41127960	     -9.81414282	     -0.60965263	    -12.07151785	      0.00000000	     14.70375728	     -8.99077213	     -4.27997641	    -66.85518936	     -4.09994527	    -17.57705052	      0.00000000	    -11.51465798	      6.12689494	     -4.69729682	     -5.25312806	    -10.94228139	     39.53862620	     30.71865465	     41.99590681	      0.00000000	      0.00000000	      4.15951759	     -8.82432144	     33.74128399	     37.16244041	     41.99590681	      0.00000000	      0.00000000
      1.60000000	      2.49376411	     -4.20567224	      6.99224984	      0.24681617	      0.98810451	     -0.24492442	      4.67766263	      9.60108422	     -4.11265844	     -8.95601767	     -0.31289817	    -11.64654398	      0.00000000	     16.20427514	     -8.20127528	     -3.90641285	    -66.28656642	     -3.43402121	    -17.40457221	      0.00000000	    -11.40075487	      5.70667587	     -4.14072702	     -4.39485952	    -11.12922210	     39.41985631	     30.88619005	     42.00532957	      0.00000000	      0.00000000	      3.51627759	     -8.80258982	     33.87003330	     36.94293185	     42.00532957	      0.00000000	      0.00000000
